<?xml version="1.0" standalone="no"?>
<!DOCTYPE svg PUBLIC "-//W3C//DTD SVG 20010904//EN"
 "http://www.w3.org/TR/2001/REC-SVG-20010904/DTD/svg10.dtd">
<svg version="1.0" xmlns="http://www.w3.org/2000/svg"
 width="512.000000pt" height="512.000000pt" viewBox="0 0 512.000000 512.000000"
 preserveAspectRatio="xMidYMid meet">

<g transform="translate(0.000000,512.000000) scale(0.100000,-0.100000)"
fill="#000000" stroke="none">
<path d="M2340 5104 c-215 -25 -366 -54 -520 -101 -393 -118 -736 -323 -1039
-618 -413 -403 -662 -895 -747 -1480 -27 -180 -24 -524 4 -710 60 -384 189
-722 399 -1038 92 -139 170 -235 302 -371 332 -340 741 -575 1196 -689 238
-59 348 -72 625 -72 262 0 374 12 580 61 350 82 708 255 1002 484 117 91 338
316 431 437 381 500 561 1084 526 1708 -36 645 -316 1248 -786 1695 -321 305
-705 516 -1134 625 -199 51 -329 67 -574 70 -126 2 -246 1 -265 -1z m1038
-653 c253 -53 473 -236 566 -472 40 -99 56 -185 56 -294 0 -327 -194 -610
-501 -731 -84 -32 -217 -56 -301 -52 l-67 3 -562 -515 c-310 -283 -587 -537
-616 -564 l-54 -49 -28 27 -29 28 -153 -141 -154 -141 -82 82 -83 83 -70 -70
c-90 -89 -114 -142 -115 -250 0 -103 25 -156 114 -246 80 -80 146 -109 249
-109 130 0 105 -21 817 689 637 635 640 639 725 680 118 57 219 72 333 48 121
-25 199 -67 288 -156 125 -124 176 -251 166 -416 -9 -175 -53 -251 -268 -470
l-148 -150 -78 77 -77 77 150 153 c87 88 161 172 174 198 32 62 39 178 15 250
-23 69 -116 169 -187 201 -75 33 -192 33 -263 0 -40 -19 -184 -157 -695 -666
-693 -689 -687 -684 -825 -720 -76 -19 -191 -19 -269 1 -150 38 -311 174 -385
326 -57 115 -72 217 -48 331 24 119 66 196 160 294 l81 84 -62 62 c-34 34 -62
66 -62 71 0 4 50 63 112 130 62 66 123 133 137 149 l25 27 -27 28 -27 28 563
613 562 614 6 126 c10 187 54 307 172 460 97 126 276 236 442 271 116 24 208
24 323 1z"/>
<path d="M3094 4235 c-61 -13 -184 -69 -184 -83 0 -4 175 -182 389 -396 l388
-388 21 33 c44 72 72 181 72 281 0 164 -50 288 -161 400 -137 137 -333 195
-525 153z"/>
<path d="M2743 3988 c-47 -58 -83 -186 -83 -295 l0 -78 248 -248 247 -247 60
0 c33 1 88 7 121 14 65 14 194 69 194 83 0 4 -175 183 -388 396 -301 300 -391
385 -399 375z"/>
<path d="M2194 3008 c-197 -216 -409 -447 -471 -514 l-111 -121 147 -147 147
-147 517 473 517 473 -187 187 c-103 104 -191 188 -194 188 -3 0 -168 -176
-365 -392z m366 17 l75 -75 -78 -78 -77 -77 -77 77 -78 78 75 75 c41 41 77 75
80 75 3 0 39 -34 80 -75z"/>
<path d="M1449 2079 l-62 -70 78 -79 78 -79 73 67 73 67 -82 83 c-45 45 -85
82 -88 82 -4 0 -35 -32 -70 -71z"/>
</g>
</svg>
